<svg class="pjbirr-site-logo" version="1.1" id="Layer_1" xmlns="http://www.w3.org/2000/svg" xmlns:xlink="http://www.w3.org/1999/xlink" x="0px" y="0px"
	 width="242.068px" height="61.602px" viewBox="0 0 242.068 61.602" enable-background="new 0 0 242.068 61.602"
	 xml:space="preserve">
<g>
	<path d="M0,0h27.871c6.137,0,10.839,1.8,14.103,5.398c3.292,3.571,4.938,8.188,4.938,13.853c0,6.109-1.799,11.006-5.398,14.688
		c-3.571,3.683-8.257,5.524-14.061,5.524H12.764v22.138H0V0z M12.764,10.797v17.87h11.76c6.277,0,9.416-3.068,9.416-9.207
		c0-3.32-0.92-5.594-2.762-6.821c-1.841-1.228-4.645-1.842-8.412-1.842H12.764z"/>
	<path d="M45.709,37.486h11.969v1.507c0,4.889,0.613,8.215,1.841,9.98c1.228,1.739,3.195,2.607,5.9,2.607
		c2.4,0,4.157-0.653,5.273-1.956c1.116-1.328,1.674-3.625,1.674-6.885V0.093H85.13v42.526c0,6.056-1.492,10.74-4.478,14.053
		c-2.984,3.285-8.008,4.93-15.065,4.93c-7.003,0-12.066-1.645-15.191-4.93s-4.687-8.322-4.687-15.111V37.486z"/>
	<path d="M88.46,61.602V0h30.424c5.662,0,10.267,1.424,13.81,4.27c3.571,2.817,5.357,6.779,5.357,11.885
		c0,5.915-2.525,9.974-7.575,12.178c6.39,2.567,9.584,7.421,9.584,14.563c-0.418,6.25-2.497,10.936-6.236,14.061
		c-3.739,3.098-10.058,4.646-18.958,4.646H88.46z M101.224,24.021H116.5c6.109,0,9.163-2.302,9.163-6.905
		c0-4.213-3.18-6.319-9.54-6.319h-14.898V24.021z M101.224,50.805h16.111c6.64,0,9.961-2.915,9.961-8.747
		c0-5.16-3.126-7.741-9.375-7.741h-16.697V50.805z"/>
	<path d="M142.083,0h12.01v11.057h-12.01V0z M142.083,16.377h12.01v45.225h-12.01V16.377z"/>
	<path d="M156.667,61.602V16.07h11.465v8.244c1.702-3.46,3.53-5.888,5.482-7.281c1.952-1.424,4.408-2.135,7.366-2.135
		c0.39,0,1.199,0.042,2.427,0.126v12.178c-1.199-0.084-2.231-0.126-3.098-0.126c-7.755,0-11.633,3.6-11.633,10.797v23.729H156.667z"
		/>
	<path d="M185.869,61.602V16.07h11.465v8.244c1.702-3.46,3.53-5.888,5.482-7.281c1.952-1.424,4.408-2.135,7.366-2.135
		c0.39,0,1.199,0.042,2.427,0.126v12.178c-1.199-0.084-2.231-0.126-3.098-0.126c-7.755,0-11.633,3.6-11.633,10.797v23.729H185.869z"
		/>
</g>
<g>
	<g>
		<path fill="#6D6E71" d="M214.974,56.718h4.93v4.884h-4.93V56.718z"/>
	</g>
	<g>
		<path fill="#6D6E71" d="M222.531,61.602v-4.884h2.944c-2.298-1.33-3.448-3.249-3.448-5.757c0-1.414,0.299-2.531,0.897-3.35
			c0.599-0.833,1.354-1.493,2.263-1.979c-2.105-1.211-3.16-2.999-3.16-5.364c0-1.948,0.582-3.536,1.743-4.76
			c1.16-1.223,2.747-1.834,4.758-1.834h13.54v5.114h-11.852c-2.573,0-3.862,0.98-3.862,2.941c0,2.234,1.331,3.35,3.987,3.35h11.727
			v5.116h-11.727c-1.495,0-2.531,0.237-3.106,0.712c-0.586,0.464-0.881,1.242-0.881,2.336c0,2.162,1.27,3.243,3.808,3.243h11.906
			v5.115H222.531z"/>
		<path fill="#6D6E71" d="M233.43,28.322c1.648-0.167,2.832-0.618,3.557-1.355c0.725-0.735,1.087-1.777,1.087-3.12
			c0-1.757-0.725-2.897-2.171-3.422V15.15c2.182,0.783,3.76,1.9,4.729,3.351c0.958,1.438,1.437,3.249,1.437,5.435
			c0,3.02-0.859,5.359-2.575,7.024c-1.717,1.651-4.222,2.477-7.516,2.477c-3.024,0-5.437-0.808-7.233-2.425
			c-1.812-1.614-2.717-3.896-2.717-6.843c0-6.166,3.599-9.25,10.791-9.25h0.612V28.322z M230.155,28.161v-7.967
			c-2.569,0.38-3.853,1.729-3.853,4.046c0,1.152,0.321,2.043,0.963,2.673C227.907,27.531,228.872,27.947,230.155,28.161z"/>
	</g>
</g>
</svg>
